<?xml version="1.0" standalone="no"?><!DOCTYPE svg PUBLIC "-//W3C//DTD SVG 1.1//EN" "http://www.w3.org/Graphics/SVG/1.1/DTD/svg11.dtd"><svg t="1738831459088" class="icon" viewBox="0 0 1024 1024" version="1.1" xmlns="http://www.w3.org/2000/svg" p-id="17589" xmlns:xlink="http://www.w3.org/1999/xlink" width="200" height="200"><path d="M1023.109565 511.332174c0 282.267826-229.064348 511.109565-511.554782 511.109565C229.064348 1022.664348 0 793.822609 0 511.332174 0 229.064348 229.064348 0.222609 511.554783 0.222609c282.490435 0 511.554783 228.841739 511.554782 511.109565z m-93.050435 0c0-230.622609-187.65913-418.281739-418.504347-418.281739-230.845217 0-418.504348 187.65913-418.504348 418.281739s187.65913 418.281739 418.504348 418.281739c230.845217 0 418.504348-187.65913 418.504347-418.281739z" fill="#0395FF" p-id="17590"></path><path d="M743.958261 511.332174c0 282.267826-104.18087 511.109565-232.626087 511.109565S278.706087 793.6 278.706087 511.332174C278.706087 229.064348 382.886957 0.222609 511.109565 0.222609c128.890435 0 232.848696 228.841739 232.848696 511.109565z m-92.827826 0c0-271.582609-99.06087-418.281739-139.575652-418.281739-40.514783 0-139.575652 146.69913-139.575653 418.281739s99.06087 418.281739 139.575653 418.281739c40.514783 0 139.575652-146.476522 139.575652-418.281739z" fill="#0395FF" p-id="17591"></path><path d="M93.050435 279.151304h837.008695v93.050435H93.050435v-93.050435z m0 325.231305h837.008695v93.050434H93.050435v-93.050434z" fill="#0395FF" p-id="17592"></path></svg>