<?xml version="1.0" standalone="no"?><!DOCTYPE svg PUBLIC "-//W3C//DTD SVG 1.1//EN" "http://www.w3.org/Graphics/SVG/1.1/DTD/svg11.dtd"><svg t="1738832340021" class="icon" viewBox="0 0 1242 1024" version="1.1" xmlns="http://www.w3.org/2000/svg" p-id="813" xmlns:xlink="http://www.w3.org/1999/xlink" width="242.578125" height="200"><path d="M620.556962 682.666667a170.666667 170.666667 0 1 0 172.28692 170.666666 171.206751 171.206751 0 0 0-172.28692-170.666666z" fill="#319161" p-id="814"></path><path d="M983.493671 494.7173L972.151899 486.075949a506.059072 506.059072 0 0 0-715.07173 9.721519l-30.244726 30.244726a42.666667 42.666667 0 0 0 0 60.489452l61.029536 59.949367a43.206751 43.206751 0 0 0 30.78481 11.881856 42.666667 42.666667 0 0 0 30.244726-12.421941l30.244726-30.78481 9.181434-9.181434a333.232068 333.232068 0 0 1 470.413502 9.721519l30.244726 30.78481a43.206751 43.206751 0 0 0 60.489451 0l61.569621-59.409283a42.666667 42.666667 0 0 0 0-60.489452z" fill="#3EC68E" p-id="815"></path><path d="M1228.151899 270.042194l-30.244726-30.244726-14.042194-13.502109a819.848101 819.848101 0 0 0-1140.658228 10.801687l-30.244726 29.704642A43.206751 43.206751 0 0 0 0 297.046414a42.666667 42.666667 0 0 0 12.421941 30.244725l60.489451 60.489452a43.206751 43.206751 0 0 0 30.784811 12.962025 42.666667 42.666667 0 0 0 30.244725-12.421941l30.78481-30.244726 11.881857-11.881856a648.101266 648.101266 0 0 1 899.780591 12.962025l30.244725 30.244726a46.447257 46.447257 0 0 0 30.784811 12.421941 43.206751 43.206751 0 0 0 30.244725-12.962026l60.489452-60.489451a43.206751 43.206751 0 0 0 14.042194-30.244726 41.046414 41.046414 0 0 0-14.042194-28.084388z" fill="#3EC68E" p-id="816"></path></svg>