<?xml version="1.0" standalone="no"?><!DOCTYPE svg PUBLIC "-//W3C//DTD SVG 1.1//EN" "http://www.w3.org/Graphics/SVG/1.1/DTD/svg11.dtd"><svg t="1738832309432" class="icon" viewBox="0 0 1195 1024" version="1.1" xmlns="http://www.w3.org/2000/svg" p-id="669" xmlns:xlink="http://www.w3.org/1999/xlink" width="233.3984375" height="200"><path d="M878.677333 656.64A424.96 424.96 0 0 0 598.698667 552.106667a424.96 424.96 0 0 0-280.149334 104.789333 10.837333 10.837333 0 0 0-1.109333 14.933333l48.042667 57.173334c3.84 4.522667 10.666667 5.12 15.189333 1.194666a328.533333 328.533333 0 0 1 218.026667-82.090666c83.626667 0 159.829333 30.890667 217.941333 81.92 4.522667 3.925333 11.349333 3.413333 15.189333-1.109334l48.042667-57.173333a10.666667 10.666667 0 0 0-1.194667-15.018667z m156.501334-186.794667a679.509333 679.509333 0 0 0-436.48-157.866666 680.106667 680.106667 0 0 0-436.736 157.866666 10.752 10.752 0 0 0-1.28 15.104l47.957333 57.173334c3.754667 4.522667 10.581333 5.12 14.933333 1.365333A585.045333 585.045333 0 0 1 598.698667 407.893333c142.506667 0 273.322667 50.944 374.869333 135.509334a10.581333 10.581333 0 0 0 14.933333-1.365334l48.042667-57.173333a10.752 10.752 0 0 0-1.365333-15.104z m155.648-185.344a934.656 934.656 0 0 0-594.773334-212.48c-224.341333 0-430.165333 78.677333-591.616 209.92a10.666667 10.666667 0 0 0-1.536 15.104l48.042667 57.173334c3.754667 4.437333 10.410667 5.12 14.762667 1.536a838.997333 838.997333 0 0 1 530.261333-187.733334c202.410667 0 388.010667 71.338667 533.333333 190.293334a10.581333 10.581333 0 0 0 14.933334-1.536l48.042666-57.173334a10.496 10.496 0 0 0-1.450666-15.104z" fill="#DDDDDD" p-id="670"></path><path d="M512 866.645333a85.333333 85.333333 0 1 0 170.666667 0 85.333333 85.333333 0 0 0-170.666667 0z" fill="#999999" p-id="671"></path></svg>