<?xml version="1.0" encoding="UTF-8"?>
<!DOCTYPE svg PUBLIC "-//W3C//DTD SVG 1.1//EN" "http://www.w3.org/Graphics/SVG/1.1/DTD/svg11.dtd">
<svg xmlns="http://www.w3.org/2000/svg" version="1.1" width="530px" height="536px"
    style="shape-rendering:geometricPrecision; text-rendering:geometricPrecision; image-rendering:optimizeQuality; fill-rule:evenodd; clip-rule:evenodd"
    xmlns:xlink="http://www.w3.org/1999/xlink">
    <g>
        <path style="opacity:1" fill="#0286cf"
            d="M 306.5,34.5 C 313.539,36.8527 320.206,40.0194 326.5,44C 363.337,65.586 400.337,86.9193 437.5,108C 452.733,117.732 465.066,130.232 474.5,145.5C 474.687,147.564 475.187,149.564 476,151.5C 477.816,154.598 479.816,157.598 482,160.5C 483.174,166.503 485.174,172.17 488,177.5C 489.081,184.791 489.747,192.124 490,199.5C 491.396,246.826 491.729,294.16 491,341.5C 490.867,351.967 489.701,362.301 487.5,372.5C 479.844,399.48 464.177,420.48 440.5,435.5C 440.631,434.624 440.298,433.957 439.5,433.5C 437.393,434.637 435.227,435.637 433,436.5C 430.035,433.9 426.535,432.9 422.5,433.5C 422.281,434.675 422.614,435.675 423.5,436.5C 430.061,438.802 429.895,441.135 423,443.5C 423.51,441.62 423.343,439.787 422.5,438C 420.073,436.409 417.407,435.575 414.5,435.5C 414.351,436.552 414.517,437.552 415,438.5C 420.84,441.408 420.674,443.075 414.5,443.5C 414.5,444.5 414.5,445.5 414.5,446.5C 412.234,446.141 410.401,446.808 409,448.5C 408.667,448.167 408.333,447.833 408,447.5C 405.076,448.734 402.409,450.401 400,452.5C 397.239,450.983 395.406,451.816 394.5,455C 396.002,455.583 397.335,456.416 398.5,457.5C 392.622,461.975 386.289,465.642 379.5,468.5C 375.339,472.405 370.339,474.905 364.5,476C 359.509,480.434 354.509,484.601 349.5,488.5C 349.158,489.338 348.492,489.672 347.5,489.5C 343.915,490.583 340.249,491.249 336.5,491.5C 336.567,494.766 334.901,496.266 331.5,496C 325.221,501.345 318.054,505.178 310,507.5C 307.538,506.841 305.038,506.507 302.5,506.5C 302.5,508.167 302.5,509.833 302.5,511.5C 297.409,510.848 292.409,511.515 287.5,513.5C 287.5,514.5 287.5,515.5 287.5,516.5C 268.269,519.873 249.269,519.04 230.5,514C 224.46,511.642 218.46,509.309 212.5,507C 210.679,504.863 208.346,504.03 205.5,504.5C 194.667,499.254 184.334,493.254 174.5,486.5C 174.586,485.504 174.252,484.671 173.5,484C 167.648,479.209 161.314,475.209 154.5,472C 156.107,470.951 156.773,469.451 156.5,467.5C 154.11,469.156 151.61,469.822 149,469.5C 148.517,468.552 148.351,467.552 148.5,466.5C 143.866,466.52 139.533,465.354 135.5,463C 130.725,459.63 125.725,456.63 120.5,454C 118.018,450.588 114.685,448.422 110.5,447.5C 112.167,445.833 111.833,444.833 109.5,444.5C 106.905,445.237 104.238,445.237 101.5,444.5C 76.8874,432.221 58.2207,413.887 45.5,389.5C 45.33,388.178 45.6634,387.011 46.5,386C 44.4165,381.624 42.2498,376.791 40,371.5C 39.2563,366.448 38.2563,361.448 37,356.5C 36.2776,308.501 35.111,260.834 33.5,213.5C 33.116,167.091 52.4494,131.591 91.5,107C 117.392,91.89 143.392,77.0566 169.5,62.5C 173.862,60.9859 178.029,58.9859 182,56.5C 183.693,57.1845 185.193,58.1845 186.5,59.5C 188.217,58.3315 188.884,56.6648 188.5,54.5C 193.319,54.1055 196.652,51.7722 198.5,47.5C 200.599,49.5202 202.933,49.8535 205.5,48.5C 202.96,44.8896 203.96,43.8896 208.5,45.5C 210.336,44.081 212.336,42.9143 214.5,42C 211.057,41.7787 210.724,40.7787 213.5,39C 216.75,39.5704 220.084,40.0704 223.5,40.5C 224.545,37.6149 226.545,35.4482 229.5,34C 236.296,33.3162 243.296,32.4829 250.5,31.5C 251.442,31.6082 252.275,31.9415 253,32.5C 253.374,31.5838 253.874,30.7504 254.5,30C 261.679,29.6562 268.845,29.1562 276,28.5C 286.086,30.7239 296.252,32.7239 306.5,34.5 Z M 145.5,243.5 C 145.5,243.833 145.5,244.167 145.5,244.5C 143.049,275.58 140.549,306.58 138,337.5C 138.956,338.894 140.289,339.561 142,339.5C 160.678,337.436 179.178,335.103 197.5,332.5C 198.167,332.5 198.833,332.5 199.5,332.5C 212.13,330.838 224.797,329.505 237.5,328.5C 237.5,355.167 237.5,381.833 237.5,408.5C 227.504,407.773 217.504,407.106 207.5,406.5C 207.5,405.833 207.167,405.5 206.5,405.5C 165.811,402.331 125.144,398.831 84.5,395C 82.8624,392.867 82.029,390.367 82,387.5C 81.5001,373.171 81.3334,358.837 81.5,344.5C 81.5,343.833 81.1667,343.5 80.5,343.5C 79.3961,275.159 78.2295,206.826 77,138.5C 102.759,137.505 128.592,137.172 154.5,137.5C 151.83,172.872 148.83,208.205 145.5,243.5 Z M 323.5,403.5 C 322.041,403.433 320.708,403.766 319.5,404.5C 307.515,403.757 295.515,403.424 283.5,403.5C 284.859,343.488 286.526,283.488 288.5,223.5C 342.116,222.779 395.449,221.779 448.5,220.5C 449.84,281.485 450.507,342.485 450.5,403.5C 408.167,403.5 365.833,403.5 323.5,403.5 Z" />
    </g>
    <g>
        <path style="opacity:1" fill="#1a7eb8"
            d="M 306.5,34.5 C 296.252,32.7239 286.086,30.7239 276,28.5C 268.845,29.1562 261.679,29.6562 254.5,30C 253.874,30.7504 253.374,31.5838 253,32.5C 252.275,31.9415 251.442,31.6082 250.5,31.5C 243.296,32.4829 236.296,33.3162 229.5,34C 226.545,35.4482 224.545,37.6149 223.5,40.5C 220.084,40.0704 216.75,39.5704 213.5,39C 210.724,40.7787 211.057,41.7787 214.5,42C 212.336,42.9143 210.336,44.081 208.5,45.5C 203.96,43.8896 202.96,44.8896 205.5,48.5C 202.933,49.8535 200.599,49.5202 198.5,47.5C 196.652,51.7722 193.319,54.1055 188.5,54.5C 188.884,56.6648 188.217,58.3315 186.5,59.5C 185.193,58.1845 183.693,57.1845 182,56.5C 178.029,58.9859 173.862,60.9859 169.5,62.5C 183.94,53.7742 198.607,45.2742 213.5,37C 244.258,22.7204 275.258,21.8871 306.5,34.5 Z" />
    </g>
    <g>
        <path style="opacity:0.708" fill="#196d9b"
            d="M 145.5,243.5 C 148.83,208.205 151.83,172.872 154.5,137.5C 128.592,137.172 102.759,137.505 77,138.5C 78.2295,206.826 79.3961,275.159 80.5,343.5C 79.053,317.003 77.8863,290.336 77,263.5C 76.354,221.491 75.6874,179.491 75,137.5C 75.5,137 76,136.5 76.5,136C 103.165,135.5 129.831,135.333 156.5,135.5C 154.995,169.291 152.161,202.957 148,236.5C 147.667,238.5 147.333,240.5 147,242.5C 146.617,243.056 146.117,243.389 145.5,243.5 Z" />
    </g>
    <g>
        <path style="opacity:0.567" fill="#1a6998"
            d="M 474.5,145.5 C 486.335,162.508 492.502,181.508 493,202.5C 493.667,249.5 493.667,296.5 493,343.5C 492.591,353.574 490.758,363.24 487.5,372.5C 489.701,362.301 490.867,351.967 491,341.5C 491.729,294.16 491.396,246.826 490,199.5C 489.747,192.124 489.081,184.791 488,177.5C 485.174,172.17 483.174,166.503 482,160.5C 479.816,157.598 477.816,154.598 476,151.5C 475.187,149.564 474.687,147.564 474.5,145.5 Z" />
    </g>
    <g>
        <path style="opacity:0.602" fill="#1b6a99"
            d="M 323.5,403.5 C 365.833,403.5 408.167,403.5 450.5,403.5C 450.507,342.485 449.84,281.485 448.5,220.5C 395.449,221.779 342.116,222.779 288.5,223.5C 286.526,283.488 284.859,343.488 283.5,403.5C 295.515,403.424 307.515,403.757 319.5,404.5C 307.098,405.83 294.598,405.83 282,404.5C 282.843,345.497 284.177,286.497 286,227.5C 286.662,225.187 287.162,222.854 287.5,220.5C 338.68,220.767 389.847,220.101 441,218.5C 444.418,218.519 447.751,218.853 451,219.5C 452.581,281.155 452.915,342.822 452,404.5C 409.904,405.663 367.738,405.83 325.5,405C 324.584,404.722 323.918,404.222 323.5,403.5 Z M 323.5,403.5 C 322.041,403.433 320.708,403.766 319.5,404.5C 307.515,403.757 295.515,403.424 283.5,403.5C 284.859,343.488 286.526,283.488 288.5,223.5C 342.116,222.779 395.449,221.779 448.5,220.5C 449.84,281.485 450.507,342.485 450.5,403.5C 408.167,403.5 365.833,403.5 323.5,403.5 Z" />
    </g>
    <g>
        <path style="opacity:0.622" fill="#196a96"
            d="M 33.5,213.5 C 35.111,260.834 36.2776,308.501 37,356.5C 38.2563,361.448 39.2563,366.448 40,371.5C 42.2498,376.791 44.4165,381.624 46.5,386C 45.6634,387.011 45.33,388.178 45.5,389.5C 37.8301,374.196 33.9968,357.863 34,340.5C 33.5,298.168 33.3333,255.835 33.5,213.5 Z" />
    </g>
    <g>
        <path style="opacity:0.71" fill="#287799"
            d="M 378.5,282.5 C 366.008,284.199 353.175,285.199 340,285.5C 339.228,285.355 338.561,285.022 338,284.5C 337.828,291.346 337.328,298.013 336.5,304.5C 336.272,296.896 336.272,289.396 336.5,282C 350.489,282.129 364.489,282.296 378.5,282.5 Z" />
    </g>
    <g>
        <path style="opacity:1" fill="#1b7bb4"
            d="M 145.5,244.5 C 146.322,253 146.989,261.667 147.5,270.5C 147.355,274.1 146.689,277.6 145.5,281C 147.292,285.044 148.626,289.211 149.5,293.5C 149.043,296.915 148.377,300.248 147.5,303.5C 146.5,303.5 145.5,303.5 144.5,303.5C 144.5,308.833 144.5,314.167 144.5,319.5C 150.537,319.171 156.537,319.504 162.5,320.5C 162.113,321.72 161.28,322.387 160,322.5C 154.487,321.189 148.987,321.189 143.5,322.5C 142.33,325.818 142.33,329.151 143.5,332.5C 143.471,334.029 142.804,335.196 141.5,336C 160.132,334.726 178.798,333.559 197.5,332.5C 179.178,335.103 160.678,337.436 142,339.5C 140.289,339.561 138.956,338.894 138,337.5C 140.549,306.58 143.049,275.58 145.5,244.5 Z" />
    </g>
    <g>
        <path style="opacity:1" fill="#0285ce"
            d="M 397.5,345.5 C 397.167,346.167 396.833,346.833 396.5,347.5C 393.811,349.11 390.811,349.943 387.5,350C 372.48,350.25 357.48,350.75 342.5,351.5C 341.111,333.362 339.778,315.196 338.5,297C 338.833,294.167 339.167,291.333 339.5,288.5C 340.086,288.291 340.586,287.957 341,287.5C 341.171,292.864 341.671,298.198 342.5,303.5C 343.496,297.537 343.829,291.537 343.5,285.5C 360.827,285.279 377.994,285.945 395,287.5C 394.843,307.193 395.676,326.526 397.5,345.5 Z" />
    </g>
    <g>
        <path style="opacity:0.959" fill="#166da1"
            d="M 378.5,282.5 C 384.775,283.307 391.108,283.973 397.5,284.5C 397.3,304.876 397.3,325.21 397.5,345.5C 395.676,326.526 394.843,307.193 395,287.5C 377.994,285.945 360.827,285.279 343.5,285.5C 343.829,291.537 343.496,297.537 342.5,303.5C 341.671,298.198 341.171,292.864 341,287.5C 340.586,287.957 340.086,288.291 339.5,288.5C 339.167,291.333 338.833,294.167 338.5,297C 339.778,315.196 341.111,333.362 342.5,351.5C 357.48,350.75 372.48,350.25 387.5,350C 390.811,349.943 393.811,349.11 396.5,347.5C 396.67,348.822 396.337,349.989 395.5,351C 377.203,352.823 358.869,353.489 340.5,353C 338.835,336.858 337.502,320.692 336.5,304.5C 337.328,298.013 337.828,291.346 338,284.5C 338.561,285.022 339.228,285.355 340,285.5C 353.175,285.199 366.008,284.199 378.5,282.5 Z" />
    </g>
    <g>
        <path style="opacity:0.639" fill="#1c6a98"
            d="M 207.5,406.5 C 217.504,407.106 227.504,407.773 237.5,408.5C 237.5,381.833 237.5,355.167 237.5,328.5C 224.797,329.505 212.13,330.838 199.5,332.5C 199.918,331.778 200.584,331.278 201.5,331C 213.455,328.872 225.455,327.538 237.5,327C 238,327.5 238.5,328 239,328.5C 239.833,355.506 239.667,382.506 238.5,409.5C 236.894,410.077 235.228,410.41 233.5,410.5C 224.481,409.587 215.814,408.254 207.5,406.5 Z" />
    </g>
    <g>
        <path style="opacity:0.31" fill="#1b6e98"
            d="M 81.5,344.5 C 81.3334,358.837 81.5001,373.171 82,387.5C 82.029,390.367 82.8624,392.867 84.5,395C 125.144,398.831 165.811,402.331 206.5,405.5C 199.679,406.655 192.679,406.821 185.5,406C 150.756,402.343 116.089,399.176 81.5,396.5C 80.2145,379.862 79.7145,363.196 80,346.5C 80.2784,345.584 80.7784,344.918 81.5,344.5 Z" />
    </g>
    <g>
        <path style="opacity:1" fill="#0285ce"
            d="M 440.5,435.5 C 410.666,453.921 380.333,471.587 349.5,488.5C 354.509,484.601 359.509,480.434 364.5,476C 370.339,474.905 375.339,472.405 379.5,468.5C 386.289,465.642 392.622,461.975 398.5,457.5C 397.335,456.416 396.002,455.583 394.5,455C 395.406,451.816 397.239,450.983 400,452.5C 402.409,450.401 405.076,448.734 408,447.5C 408.333,447.833 408.667,448.167 409,448.5C 410.401,446.808 412.234,446.141 414.5,446.5C 414.5,445.5 414.5,444.5 414.5,443.5C 420.674,443.075 420.84,441.408 415,438.5C 414.517,437.552 414.351,436.552 414.5,435.5C 417.407,435.575 420.073,436.409 422.5,438C 423.343,439.787 423.51,441.62 423,443.5C 429.895,441.135 430.061,438.802 423.5,436.5C 422.614,435.675 422.281,434.675 422.5,433.5C 426.535,432.9 430.035,433.9 433,436.5C 435.227,435.637 437.393,434.637 439.5,433.5C 440.298,433.957 440.631,434.624 440.5,435.5 Z" />
    </g>
    <g>
        <path style="opacity:1" fill="#0285ce"
            d="M 101.5,444.5 C 104.238,445.237 106.905,445.237 109.5,444.5C 111.833,444.833 112.167,445.833 110.5,447.5C 114.685,448.422 118.018,450.588 120.5,454C 125.725,456.63 130.725,459.63 135.5,463C 139.533,465.354 143.866,466.52 148.5,466.5C 148.351,467.552 148.517,468.552 149,469.5C 151.61,469.822 154.11,469.156 156.5,467.5C 156.773,469.451 156.107,470.951 154.5,472C 161.314,475.209 167.648,479.209 173.5,484C 174.252,484.671 174.586,485.504 174.5,486.5C 149.669,473.255 125.336,459.255 101.5,444.5 Z" />
    </g>
    <g>
        <path style="opacity:0.653" fill="#2074a5"
            d="M 347.5,489.5 C 331.694,500.405 314.694,509.238 296.5,516C 264.383,524.861 234.049,521.027 205.5,504.5C 208.346,504.03 210.679,504.863 212.5,507C 218.46,509.309 224.46,511.642 230.5,514C 249.269,519.04 268.269,519.873 287.5,516.5C 287.5,515.5 287.5,514.5 287.5,513.5C 292.409,511.515 297.409,510.848 302.5,511.5C 302.5,509.833 302.5,508.167 302.5,506.5C 305.038,506.507 307.538,506.841 310,507.5C 318.054,505.178 325.221,501.345 331.5,496C 334.901,496.266 336.567,494.766 336.5,491.5C 340.249,491.249 343.915,490.583 347.5,489.5 Z" />
    </g>
</svg>