<?xml version="1.0" standalone="no"?>
<!DOCTYPE svg PUBLIC "-//W3C//DTD SVG 1.1//EN" "http://www.w3.org/Graphics/SVG/1.1/DTD/svg11.dtd"><svg t="1738813484590"
    class="icon" viewBox="0 0 1024 1024" version="1.1" xmlns="http://www.w3.org/2000/svg" p-id="4200"
    xmlns:xlink="http://www.w3.org/1999/xlink" width="200" height="200">
    <path
        d="M481.686267 599.816073L240.843133 838.367447c-21.250865 21.042523-47.501933 28.959512-58.75239 17.709054-11.250458-11.250458-3.125127-37.501526 17.917395-58.544049l238.968057-238.968057c21.042523-21.042523 47.918616-28.959512 59.7941-17.500712 11.875483 11.4588 4.166836 37.709868-17.084028 58.75239z"
        fill="#424242" p-id="4201"></path>
    <path
        d="M894.203052 193.132859c-6.666938-23.750966-30.834588-46.460224-53.960529-50.418719-23.125941-4.166836-59.377416 10.000407-80.836623 31.459614L600.232757 333.346897c-21.459207 21.459207-31.876297 45.835198-23.334283 54.585555 8.542014 8.542014 14.375585 16.459003 12.917192 17.500712-0.833367 0.625025-151.672838 150.839471-152.297863 151.672838-11.4588 11.250458-11.250458 29.584537 0.416683 40.834995 11.667141 11.250458 30.209563 11.4588 41.460021 0.208342 0.833367-0.625025 151.256155-151.047813 151.88118-151.672838 1.041709-1.250051 9.16704 5.000203 18.125737 13.958901 8.958698 9.16704 33.751373-1.041709 55.418922-22.500916l162.714954-162.714954c21.250865-21.667548 33.33469-58.335707 26.667752-82.086673z"
        fill="#424242" p-id="4202"></path>
    <path
        d="M894.203052 193.132859c-6.666938-23.750966-30.834588-46.460224-53.960529-50.418719-23.125941-4.166836-59.377416 10.000407-80.836623 31.459614L600.232757 333.346897c-21.459207 21.459207-31.876297 45.835198-23.334283 54.585555 8.542014 8.542014 14.375585 16.459003 12.917192 17.500712l41.251679 41.043337c1.041709-1.250051 9.16704 5.000203 18.125737 13.958901 8.958698 9.16704 33.751373-1.041709 55.418922-22.500916l162.714954-162.714954c21.459207-21.667548 33.543032-58.335707 26.876094-82.086673z"
        fill="#D32F2F" p-id="4203"></path>
    <path
        d="M865.451882 153.964598c-4.58352-3.333469-9.583723-6.041913-14.583927-8.12533L590.649034 406.058189l11.250457 11.250458L865.451882 153.964598z"
        fill="#B71C1C" p-id="4204"></path>
    <path
        d="M347.930824 406.891556l-16.459003 16.667345c-19.58413 20.000814-51.877111 20.209156-71.877925 0.416684l-107.087691-105.83764c-15.00061-15.00061-24.375992-15.208952-24.584333-2.708443v0.625025c0 3.958494 1.041709 8.958698 2.708443 15.208952l27.917803 94.587182c7.916989 26.876094 35.834791 56.043947 62.502543 65.002645l95.212208 32.084639c26.667752 8.958698 64.169278 32.292981 84.170091 52.085453L695.861648 867.326958c20.000814 19.792472 52.085453 19.58413 71.877925-0.208342l20.000814-20.209155-75.628078-75.628077c-7.916989 6.666938-18.125738 10.625432-29.167853 10.625432-25.209359 0-45.626857-20.417497-45.626857-45.626857 0-11.042116 3.958494-21.250865 10.625433-29.167853L347.930824 406.891556z"
        fill="#757575" p-id="4205"></path>
    <path
        d="M816.491556 745.446999L521.271211 452.935097c-20.000814-19.58413-43.960122-57.085656-53.752188-83.336725l-32.918006-88.961953c-9.792065-26.251068-39.376602-54.585554-66.044354-62.919227l-95.003865-30.00122c-26.667752-8.542014-32.292981 0.625025-12.292167 20.417497l107.08769 106.045982c20.000814 19.792472 20.209156 51.877111 0.416684 71.877924l-20.625839 20.834181-0.208342 0.208342 299.803866 299.803866c8.333672-10.000407 20.834181-16.250661 35.001424-16.250661 25.209359 0 45.626857 20.417497 45.626856 45.626856 0 14.167243-6.250254 26.667752-16.250661 35.001425l75.628078 75.628077 29.167853-29.376195c19.58413-20.209156 19.375788-52.293795-0.416684-72.086267z"
        fill="#BDBDBD" p-id="4206"></path>
    <path
        d="M893.786368 191.674466c-1.666734-5.208545-4.166836-10.417091-7.291963-15.417294L623.775381 438.976195l7.291964 7.291964c0.416684-0.625025 2.500102 0.416684 5.416887 2.500101L893.786368 191.674466z"
        fill="#B71C1C" p-id="4207"></path>
</svg>