<?xml version="1.0" standalone="no"?>
<!DOCTYPE svg PUBLIC "-//W3C//DTD SVG 1.1//EN" "http://www.w3.org/Graphics/SVG/1.1/DTD/svg11.dtd"><svg t="1738814509305"
    class="icon" viewBox="0 0 1024 1024" version="1.1" xmlns="http://www.w3.org/2000/svg" p-id="10503"
    xmlns:xlink="http://www.w3.org/1999/xlink" width="200" height="200">
    <path
        d="M880.64 1003.52H143.36c-67.584 0-122.88-55.296-122.88-122.88V143.36c0-67.584 55.296-122.88 122.88-122.88h737.28c67.584 0 122.88 55.296 122.88 122.88v737.28c0 67.584-55.296 122.88-122.88 122.88z"
        fill="#8B7BFF" p-id="10504"></path>
    <path
        d="M849.92 839.68h-675.84c-14.336 0-26.624-10.24-26.624-22.528v-135.168c0-12.288 12.288-22.528 26.624-22.528h673.792c14.336 0 26.624 10.24 26.624 22.528v135.168c0 12.288-10.24 22.528-24.576 22.528z m-598.016-143.36h-61.44v53.248h61.44V696.32z m354.304 0h-61.44v106.496h61.44V696.32z m112.64 0h-61.44v106.496h61.44V696.32z m112.64 0h-61.44v106.496h61.44V696.32z m18.432-92.16h-675.84c-14.336 0-26.624-10.24-26.624-22.528v-135.168c0-12.288 12.288-22.528 26.624-22.528h673.792c14.336 0 26.624 10.24 26.624 22.528v135.168c0 12.288-10.24 22.528-24.576 22.528z m-598.016-145.408h-61.44V512h61.44v-53.248z m354.304 0h-61.44v106.496h61.44v-106.496z m112.64 0h-61.44v106.496h61.44v-106.496z m112.64 0h-61.44v106.496h61.44v-106.496z m18.432-92.16h-675.84c-14.336 0-26.624-10.24-26.624-22.528v-135.168c2.048-14.336 12.288-24.576 26.624-24.576h673.792c14.336 0 26.624 10.24 26.624 22.528v135.168c0 14.336-10.24 24.576-24.576 24.576z m-598.016-145.408h-61.44v53.248h61.44v-53.248z m354.304 0h-61.44V327.68h61.44v-106.496z m112.64 0h-61.44V327.68h61.44v-106.496z m112.64 0h-61.44V327.68h61.44v-106.496z"
        fill="#FFFFFF" p-id="10505"></path>
</svg>