<?xml version="1.0" standalone="no"?><!DOCTYPE svg PUBLIC "-//W3C//DTD SVG 1.1//EN" "http://www.w3.org/Graphics/SVG/1.1/DTD/svg11.dtd"><svg t="1738814590482" class="icon" viewBox="0 0 1036 1024" version="1.1" xmlns="http://www.w3.org/2000/svg" p-id="14329" xmlns:xlink="http://www.w3.org/1999/xlink" width="202.34375" height="200"><path d="M515.284165 1023.150738H96.604879a87.979578 87.979578 0 0 1-83.321835-134.039474c43.472262-89.014632 90.049686-175.959156 135.592055-263.938734L438.172652 66.760974C455.251041 33.63925 473.882011 0 518.389326 0s61.068178 33.63925 78.146567 66.243447q207.010772 402.118424 417.644231 805.789428l7.762904 16.560862A87.979578 87.979578 0 0 1 932.410869 1022.633211H513.214057zM466.636634 484.405205v168.196252a51.752693 51.752693 0 1 0 103.505385 0V318.796588A54.340328 54.340328 0 0 0 515.284165 258.763464 51.752693 51.752693 0 0 0 466.636634 318.796588v165.608617z m115.408505 362.268851a64.173339 64.173339 0 0 0-127.829152-3.105162A65.208393 65.208393 0 0 0 518.389326 908.25976a66.243447 66.243447 0 0 0 62.103232-63.655812z" fill="#C30D23" p-id="14330"></path><path d="M466.636634 484.405205v-165.608617A51.752693 51.752693 0 0 1 515.284165 258.763464a54.340328 54.340328 0 0 1 51.752693 60.550651v333.804869a51.752693 51.752693 0 1 1-103.505386 0C466.636634 596.708549 466.636634 540.298114 466.636634 484.405205zM580.492558 844.603948a66.243447 66.243447 0 0 1-62.103232 63.655812 65.208393 65.208393 0 0 1-63.655812-66.760974 64.173339 64.173339 0 0 1 127.829152 3.105162z" fill="#FEFDFD" p-id="14331"></path></svg>